<svg width="13" height="11" viewBox="0 0 13 11" fill="none" xmlns="http://www.w3.org/2000/svg">
<path d="M7.09546 0.303514L6.66953 0.729343C6.53562 0.863043 6.46153 1.04177 6.46153 1.23201C6.46153 1.42247 6.53562 1.61736 6.66953 1.75106L9.40629 4.50421L0.711406 4.50421C0.319292 4.50421 -2.67257e-07 4.79042 -2.50122e-07 5.18243L-2.23784e-07 5.78497C-2.06653e-07 6.17687 0.319293 6.53548 0.711406 6.53548L9.43726 6.53548L6.66953 9.28313C6.53562 9.41704 6.46153 9.58552 6.46153 9.77597C6.46153 9.96621 6.53562 10.14 6.66953 10.2738L7.09546 10.6973C7.37269 10.9744 7.82368 10.9732 8.1009 10.6961L12.7924 6.00407C12.926 5.87047 13 5.69122 13 5.49939L13 5.49738C13 5.30703 12.926 5.12821 12.7924 4.99461L8.10101 0.303514C7.82389 0.0261809 7.37269 0.0261809 7.09546 0.303514Z" fill="#3378FF"/>
</svg>
