<svg width="19" height="19" viewBox="0 0 19 19" fill="none" xmlns="http://www.w3.org/2000/svg">
<g filter="url(#filter0_d)">
<path d="M8.75 13.25C8.75 13.6642 9.08579 14 9.5 14C9.91421 14 10.25 13.6642 10.25 13.25C10.25 12.8358 9.91421 12.5 9.5 12.5C9.08579 12.5 8.75 12.8358 8.75 13.25ZM9.5 2C5.36 2 2 5.36 2 9.5C2 13.64 5.36 17 9.5 17C13.64 17 17 13.64 17 9.5C17 5.36 13.64 2 9.5 2ZM9.5 15.5C6.1925 15.5 3.5 12.8075 3.5 9.5C3.5 6.1925 6.1925 3.5 9.5 3.5C12.8075 3.5 15.5 6.1925 15.5 9.5C15.5 12.8075 12.8075 15.5 9.5 15.5ZM9.5 5C8.09877 5 6.92267 5.95946 6.59248 7.25757C6.49037 7.659 6.83579 8 7.25 8C7.66421 8 7.98496 7.64407 8.18466 7.28118C8.44032 6.81661 8.93498 6.5 9.5 6.5C10.325 6.5 11 7.175 11 8C11 9.32711 9.23878 9.3333 8.83278 11.0052C8.73504 11.4077 9.08579 11.75 9.5 11.75C9.91421 11.75 10.2326 11.3971 10.4129 11.0242C10.9299 9.95501 12.5 9.56628 12.5 8C12.5 6.3425 11.1575 5 9.5 5Z" fill="#007CFF"/>
</g>
<defs>
<filter id="filter0_d" x="0" y="0" width="19" height="19" filterUnits="userSpaceOnUse" color-interpolation-filters="sRGB">
<feFlood flood-opacity="0" result="BackgroundImageFix"/>
<feColorMatrix in="SourceAlpha" type="matrix" values="0 0 0 0 0 0 0 0 0 0 0 0 0 0 0 0 0 0 127 0"/>
<feOffset/>
<feGaussianBlur stdDeviation="1"/>
<feColorMatrix type="matrix" values="0 0 0 0 0 0 0 0 0 0 0 0 0 0 0 0 0 0 0.12 0"/>
<feBlend mode="normal" in2="BackgroundImageFix" result="effect1_dropShadow"/>
<feBlend mode="normal" in="SourceGraphic" in2="effect1_dropShadow" result="shape"/>
</filter>
</defs>
</svg>
