<svg width="15" height="16" viewBox="0 0 15 16" fill="none" xmlns="http://www.w3.org/2000/svg">
<path opacity="0.6" d="M6.75 12.6256H8.25V11.1229H6.75V12.6256ZM7.5 0.604126C3.36 0.604126 0 3.97015 0 8.11757C0 12.265 3.36 15.631 7.5 15.631C11.64 15.631 15 12.265 15 8.11757C15 3.97015 11.64 0.604126 7.5 0.604126ZM7.5 14.1283C4.1925 14.1283 1.5 11.431 1.5 8.11757C1.5 4.80414 4.1925 2.10681 7.5 2.10681C10.8075 2.10681 13.5 4.80414 13.5 8.11757C13.5 11.431 10.8075 14.1283 7.5 14.1283ZM7.5 3.6095C5.8425 3.6095 4.5 4.95441 4.5 6.61488H6C6 5.7884 6.675 5.11219 7.5 5.11219C8.325 5.11219 9 5.7884 9 6.61488C9 8.11757 6.75 7.92973 6.75 10.3716H8.25C8.25 8.68108 10.5 8.49324 10.5 6.61488C10.5 4.95441 9.1575 3.6095 7.5 3.6095Z" fill="#333333"/>
</svg>
