<svg width="56" height="62" viewBox="0 0 56 62" fill="none" xmlns="http://www.w3.org/2000/svg">
    <path d="M18.3847 0L17.3075 4.4422C16.9222 6.03125 15.6815 7.27194 14.0925 7.65726L9.65029 8.73443L14.0925 9.81159C15.6815 10.1969 16.9222 11.4376 17.3075 13.0267L18.3847 17.4689L19.4619 13.0267C19.8472 11.4376 21.0879 10.1969 22.6769 9.81159L27.1191 8.73443L22.6769 7.65726C21.0879 7.27194 19.8472 6.03125 19.4619 4.4422L18.3847 0Z" fill="white"/>
    <path d="M49.325 11L48.545 14.2168C48.2659 15.3675 47.3675 16.2659 46.2168 16.5449L43 17.3249L46.2168 18.1049C47.3675 18.384 48.2659 19.2824 48.545 20.4331L49.325 23.6499L50.105 20.4331C50.384 19.2824 51.2824 18.384 52.4331 18.1049L55.6499 17.3249L52.4331 16.5449C51.2824 16.2659 50.384 15.3675 50.105 14.2168L49.325 11Z" fill="white"/>
    <path d="M4.68729 33.4788L4.10924 35.8626C3.90246 36.7154 3.23666 37.3812 2.38392 37.5879L6.29425e-05 38.166L2.38392 38.744C3.23666 38.9508 3.90246 39.6166 4.10924 40.4694L4.68729 42.8532L5.26534 40.4694C5.47211 39.6166 6.13792 38.9508 6.99066 38.744L9.37451 38.166L6.99066 37.5879C6.13792 37.3812 5.47211 36.7154 5.26534 35.8626L4.68729 33.4788Z" fill="white"/>
    <path d="M25.6873 30L25.1092 32.3839C24.9025 33.2366 24.2367 33.9024 23.3839 34.1092L21.0001 34.6872L23.3839 35.2653C24.2367 35.4721 24.9025 36.1379 25.1092 36.9906L25.6873 39.3744L26.2653 36.9906C26.4721 36.1379 27.1379 35.4721 27.9907 35.2653L30.3745 34.6872L27.9907 34.1092C27.1379 33.9024 26.4721 33.2366 26.2653 32.3839L25.6873 30Z" fill="white"/>
    <path d="M44.6873 41L44.1092 43.3839C43.9025 44.2366 43.2367 44.9024 42.3839 45.1092L40.0001 45.6872L42.3839 46.2653C43.2367 46.4721 43.9025 47.1379 44.1092 47.9906L44.6873 50.3744L45.2653 47.9906C45.4721 47.1379 46.1379 46.4721 46.9907 46.2653L49.3745 45.6872L46.9907 45.1092C46.1379 44.9024 45.4721 44.2366 45.2653 43.3839L44.6873 41Z" fill="white"/>
    <path d="M20.2483 56.7738L19.9396 58.0471C19.8291 58.5026 19.4735 58.8582 19.018 58.9687L17.7447 59.2774L19.018 59.5862C19.4735 59.6966 19.8291 60.0523 19.9396 60.5077L20.2483 61.781L20.5571 60.5077C20.6675 60.0523 21.0232 59.6966 21.4787 59.5862L22.752 59.2774L21.4787 58.9687C21.0232 58.8582 20.6675 58.5026 20.5571 58.0471L20.2483 56.7738Z" fill="white"/>
</svg>
