<svg width="62" height="66" viewBox="0 0 62 66" fill="none" xmlns="http://www.w3.org/2000/svg">
    <path d="M28.7499 0L29.829 4.45008C30.215 6.04194 31.4579 7.28483 33.0497 7.67083L37.4998 8.74991L33.0497 9.82899C31.4579 10.215 30.215 11.4579 29.829 13.0497L28.7499 17.4998L27.6708 13.0497C27.2848 11.4579 26.0419 10.215 24.4501 9.82899L20 8.74991L24.4501 7.67083C26.0419 7.28483 27.2848 6.04194 27.6708 4.45008L28.7499 0Z" fill="white"/>
    <path d="M6.33614 20L7.11754 23.2225C7.39706 24.3752 8.29709 25.2752 9.44982 25.5547L12.6723 26.3361L9.44981 27.1175C8.29708 27.3971 7.39706 28.2971 7.11754 29.4498L6.33614 32.6723L5.55474 29.4498C5.27522 28.2971 4.3752 27.3971 3.22247 27.1175L0 26.3361L3.22247 25.5547C4.3752 25.2752 5.27522 24.3752 5.55474 23.2225L6.33614 20Z" fill="white"/>
    <path d="M56.82 33.5309L57.3991 35.919C57.6063 36.7732 58.2732 37.4402 59.1275 37.6473L61.5156 38.2264L59.1275 38.8055C58.2732 39.0126 57.6063 39.6796 57.3991 40.5339L56.82 42.922L56.241 40.5339C56.0338 39.6796 55.3668 39.0126 54.5126 38.8055L52.1245 38.2264L54.5126 37.6473C55.3668 37.4402 56.0338 36.7732 56.241 35.919L56.82 33.5309Z" fill="white"/>
    <path d="M33.8513 30.2498L34.4304 32.6378C34.6375 33.4921 35.3045 34.1591 36.1588 34.3662L38.5468 34.9453L36.1588 35.5244C35.3045 35.7315 34.6375 36.3985 34.4304 37.2527L33.8513 39.6408L33.2722 37.2527C33.0651 36.3985 32.3981 35.7315 31.5438 35.5244L29.1558 34.9453L31.5438 34.3662C32.3981 34.1591 33.0651 33.4921 33.2722 32.6378L33.8513 30.2498Z" fill="white"/>
    <path d="M15.2575 54.3119L15.8366 56.7C16.0438 57.5542 16.7107 58.2212 17.565 58.4283L19.9531 59.0074L17.565 59.5865C16.7107 59.7936 16.0438 60.4606 15.8366 61.3149L15.2575 63.703L14.6785 61.3149C14.4713 60.4606 13.8043 59.7936 12.9501 59.5865L10.562 59.0074L12.9501 58.4283C13.8043 58.2212 14.4713 57.5542 14.6785 56.7L15.2575 54.3119Z" fill="white"/>
    <path d="M38.2263 60.8744L38.5356 62.1499C38.6463 62.6062 39.0025 62.9625 39.4588 63.0731L40.7344 63.3824L39.4588 63.6917C39.0025 63.8024 38.6463 64.1587 38.5356 64.6149L38.2263 65.8905L37.917 64.6149C37.8064 64.1587 37.4501 63.8024 36.9938 63.6918L35.7183 63.3824L36.9938 63.0731C37.4501 62.9625 37.8064 62.6062 37.917 62.1499L38.2263 60.8744Z" fill="white"/>
</svg>